<?xml version="1.0" encoding="UTF-8"?>
<!-- Uploaded to: SVG Find, www.svgrepo.com, Generator: SVG Find Mixer Tools -->
<svg fill="#000000" width="800px" height="800px" version="1.1" viewBox="144 144 512 512" xmlns="http://www.w3.org/2000/svg">
 <path d="m510.21 179.58h-220.42c-29.227 0-57.262 11.609-77.93 32.277s-32.277 48.703-32.277 77.93v220.42c0 29.23 11.609 57.262 32.277 77.93s48.703 32.277 77.93 32.277h220.42c29.23 0 57.262-11.609 77.93-32.277s32.277-48.699 32.277-77.93v-220.42c0-29.227-11.609-57.262-32.277-77.93s-48.699-32.277-77.93-32.277zm-15.746 236.16h-78.719v78.719c0 5.625-3 10.824-7.8711 13.637s-10.875 2.8125-15.746 0-7.8711-8.0117-7.8711-13.637v-78.719h-78.719c-5.625 0-10.824-3-13.637-7.8711s-2.8125-10.875 0-15.746 8.0117-7.8711 13.637-7.8711h78.719v-78.719c0-5.625 3-10.824 7.8711-13.637s10.875-2.8125 15.746 0 7.8711 8.0117 7.8711 13.637v78.719h78.719c5.625 0 10.824 3 13.637 7.8711s2.8125 10.875 0 15.746-8.0117 7.8711-13.637 7.8711z"/>
</svg>