<?xml version="1.0" encoding="UTF-8"?>
<!-- Uploaded to: SVG Find, www.svgrepo.com, Generator: SVG Find Mixer Tools -->
<svg fill="#000000" width="800px" height="800px" version="1.1" viewBox="144 144 512 512" xmlns="http://www.w3.org/2000/svg">
 <path d="m400 168.25c-127.97 0-231.75 103.79-231.75 231.75s103.79 231.75 231.75 231.75 231.75-103.79 231.75-231.75c-0.003906-127.97-103.79-231.75-231.75-231.75zm0 100.76c18.641 0 36.777 4.0312 52.898 11.082l-172.8 172.81c-7.0547-16.121-11.086-34.258-11.086-52.898 0-72.551 58.441-130.99 130.99-130.99zm0 261.98c-20.152 0-39.297-4.5352-55.922-12.594l174.32-174.32c8.0586 16.625 12.594 35.77 12.594 55.922 0 72.547-58.441 130.99-130.99 130.99z"/>
</svg>